<?xml version="1.0" encoding="UTF-8" standalone="no"?>
<!DOCTYPE svg PUBLIC "-//W3C//DTD SVG 1.1//EN"
 "http://www.w3.org/Graphics/SVG/1.1/DTD/svg11.dtd">
<!-- Generated by graphviz version 12.2.1 (0)
 -->
<!-- Title: cf_before.main._main.basic&#45;block&#45;flow.gv Pages: 1 -->
<svg width="241pt" height="645pt"
 viewBox="0.00 0.00 240.55 644.52" xmlns="http://www.w3.org/2000/svg" xmlns:xlink="http://www.w3.org/1999/xlink">
<g id="graph0" class="graph" transform="scale(1 1) rotate(0) translate(4 640.52)">
<title>cf_before.main._main.basic&#45;block&#45;flow.gv</title>
<!-- 0 -->
<g id="node1" class="node">
<title>0</title>
<path fill="#11161f" stroke="#2b3645" stroke-width="1.3" d="M152.17,-636.52C152.17,-636.52 76,-636.52 76,-636.52 70,-636.52 64,-630.52 64,-624.52 64,-624.52 64,-457.68 64,-457.68 64,-451.68 70,-445.68 76,-445.68 76,-445.68 152.17,-445.68 152.17,-445.68 158.17,-445.68 164.17,-451.68 164.17,-457.68 164.17,-457.68 164.17,-624.52 164.17,-624.52 164.17,-630.52 158.17,-636.52 152.17,-636.52"/>
<text text-anchor="start" x="76.96" y="-618.15" font-family="JetBrains Mono, ui-monospace, monospace" font-size="11.00" fill="#c9d3df">label l7</text>
<text text-anchor="start" x="76.96" y="-604.65" font-family="JetBrains Mono, ui-monospace, monospace" font-size="11.00" fill="#c9d3df">move</text>
<text text-anchor="start" x="76.96" y="-591.15" font-family="JetBrains Mono, ui-monospace, monospace" font-size="11.00" fill="#c9d3df"> &#160;temp t0.0</text>
<text text-anchor="start" x="76.96" y="-577.65" font-family="JetBrains Mono, ui-monospace, monospace" font-size="11.00" fill="#c9d3df"> &#160;const 0</text>
<text text-anchor="start" x="76.96" y="-564.15" font-family="JetBrains Mono, ui-monospace, monospace" font-size="11.00" fill="#c9d3df">move</text>
<text text-anchor="start" x="76.96" y="-550.65" font-family="JetBrains Mono, ui-monospace, monospace" font-size="11.00" fill="#c9d3df"> &#160;temp t0.1</text>
<text text-anchor="start" x="76.96" y="-537.15" font-family="JetBrains Mono, ui-monospace, monospace" font-size="11.00" fill="#c9d3df"> &#160;const 0</text>
<text text-anchor="start" x="76.96" y="-523.65" font-family="JetBrains Mono, ui-monospace, monospace" font-size="11.00" fill="#c9d3df">cjump eq</text>
<text text-anchor="start" x="76.96" y="-510.15" font-family="JetBrains Mono, ui-monospace, monospace" font-size="11.00" fill="#c9d3df"> &#160;temp t0.1</text>
<text text-anchor="start" x="76.96" y="-496.65" font-family="JetBrains Mono, ui-monospace, monospace" font-size="11.00" fill="#c9d3df"> &#160;const 0</text>
<text text-anchor="start" x="76.96" y="-483.15" font-family="JetBrains Mono, ui-monospace, monospace" font-size="11.00" fill="#c9d3df"> &#160;name l1</text>
<text text-anchor="start" x="76.96" y="-469.65" font-family="JetBrains Mono, ui-monospace, monospace" font-size="11.00" fill="#c9d3df"> &#160;name l2</text>
</g>
<!-- 1 -->
<g id="node2" class="node">
<title>1</title>
<path fill="#11161f" stroke="#2b3645" stroke-width="1.3" d="M88.17,-413.68C88.17,-413.68 12,-413.68 12,-413.68 6,-413.68 0,-407.68 0,-401.68 0,-401.68 0,-288.84 0,-288.84 0,-282.84 6,-276.84 12,-276.84 12,-276.84 88.17,-276.84 88.17,-276.84 94.17,-276.84 100.17,-282.84 100.17,-288.84 100.17,-288.84 100.17,-401.68 100.17,-401.68 100.17,-407.68 94.17,-413.68 88.17,-413.68"/>
<text text-anchor="start" x="12.96" y="-395.31" font-family="JetBrains Mono, ui-monospace, monospace" font-size="11.00" fill="#c9d3df">label l1</text>
<text text-anchor="start" x="12.96" y="-381.81" font-family="JetBrains Mono, ui-monospace, monospace" font-size="11.00" fill="#c9d3df">move</text>
<text text-anchor="start" x="12.96" y="-368.31" font-family="JetBrains Mono, ui-monospace, monospace" font-size="11.00" fill="#c9d3df"> &#160;temp t0.2</text>
<text text-anchor="start" x="12.96" y="-354.81" font-family="JetBrains Mono, ui-monospace, monospace" font-size="11.00" fill="#c9d3df"> &#160;binop add</text>
<text text-anchor="start" x="12.96" y="-341.31" font-family="JetBrains Mono, ui-monospace, monospace" font-size="11.00" fill="#c9d3df"> &#160;&#160;&#160;const 3</text>
<text text-anchor="start" x="12.96" y="-327.81" font-family="JetBrains Mono, ui-monospace, monospace" font-size="11.00" fill="#c9d3df"> &#160;&#160;&#160;const 4</text>
<text text-anchor="start" x="12.96" y="-314.31" font-family="JetBrains Mono, ui-monospace, monospace" font-size="11.00" fill="#c9d3df">jump</text>
<text text-anchor="start" x="12.96" y="-300.81" font-family="JetBrains Mono, ui-monospace, monospace" font-size="11.00" fill="#c9d3df"> &#160;name l3</text>
</g>
<!-- 0&#45;&gt;1 -->
<g id="edge2" class="edge">
<title>0&#45;&gt;1</title>
<path fill="none" stroke="#ffa657" stroke-width="1.2" d="M82.83,-445.45C80.33,-437.85 77.81,-430.24 75.35,-422.79"/>
<polygon fill="#ffa657" stroke="#ffa657" stroke-width="1.2" points="77.91,-422.16 73.06,-415.86 72.92,-423.8 77.91,-422.16"/>
</g>
<!-- 3 -->
<g id="node4" class="node">
<title>3</title>
<path fill="#11161f" stroke="#2b3645" stroke-width="1.3" d="M220.55,-413.68C220.55,-413.68 137.62,-413.68 137.62,-413.68 131.62,-413.68 125.62,-407.68 125.62,-401.68 125.62,-401.68 125.62,-288.84 125.62,-288.84 125.62,-282.84 131.62,-276.84 137.62,-276.84 137.62,-276.84 220.55,-276.84 220.55,-276.84 226.55,-276.84 232.55,-282.84 232.55,-288.84 232.55,-288.84 232.55,-401.68 232.55,-401.68 232.55,-407.68 226.55,-413.68 220.55,-413.68"/>
<text text-anchor="start" x="138.59" y="-395.31" font-family="JetBrains Mono, ui-monospace, monospace" font-size="11.00" fill="#c9d3df">label l2</text>
<text text-anchor="start" x="138.59" y="-381.81" font-family="JetBrains Mono, ui-monospace, monospace" font-size="11.00" fill="#c9d3df">move</text>
<text text-anchor="start" x="138.59" y="-368.31" font-family="JetBrains Mono, ui-monospace, monospace" font-size="11.00" fill="#c9d3df"> &#160;temp t0.4</text>
<text text-anchor="start" x="138.59" y="-354.81" font-family="JetBrains Mono, ui-monospace, monospace" font-size="11.00" fill="#c9d3df"> &#160;binop mul</text>
<text text-anchor="start" x="138.59" y="-341.31" font-family="JetBrains Mono, ui-monospace, monospace" font-size="11.00" fill="#c9d3df"> &#160;&#160;&#160;const 10</text>
<text text-anchor="start" x="138.59" y="-327.81" font-family="JetBrains Mono, ui-monospace, monospace" font-size="11.00" fill="#c9d3df"> &#160;&#160;&#160;const 2</text>
<text text-anchor="start" x="138.59" y="-314.31" font-family="JetBrains Mono, ui-monospace, monospace" font-size="11.00" fill="#c9d3df">jump</text>
<text text-anchor="start" x="138.59" y="-300.81" font-family="JetBrains Mono, ui-monospace, monospace" font-size="11.00" fill="#c9d3df"> &#160;name l3</text>
</g>
<!-- 0&#45;&gt;3 -->
<g id="edge4" class="edge">
<title>0&#45;&gt;3</title>
<path fill="none" stroke="#ffa657" stroke-width="1.2" d="M145.82,-445.45C148.37,-437.85 150.93,-430.24 153.42,-422.79"/>
<polygon fill="#ffa657" stroke="#ffa657" stroke-width="1.2" points="155.85,-423.8 155.75,-415.85 150.87,-422.13 155.85,-423.8"/>
</g>
<!-- 2 -->
<g id="node3" class="node">
<title>2</title>
<path fill="#11161f" stroke="#2b3645" stroke-width="1.3" d="M175.8,-244.84C175.8,-244.84 52.38,-244.84 52.38,-244.84 46.38,-244.84 40.38,-238.84 40.38,-232.84 40.38,-232.84 40.38,-12 40.38,-12 40.38,-6 46.38,0 52.38,0 52.38,0 175.8,0 175.8,0 181.8,0 187.8,-6 187.8,-12 187.8,-12 187.8,-232.84 187.8,-232.84 187.8,-238.84 181.8,-244.84 175.8,-244.84"/>
<text text-anchor="start" x="53.34" y="-226.47" font-family="JetBrains Mono, ui-monospace, monospace" font-size="11.00" fill="#c9d3df">label l3</text>
<text text-anchor="start" x="53.34" y="-212.97" font-family="JetBrains Mono, ui-monospace, monospace" font-size="11.00" fill="#c9d3df">move</text>
<text text-anchor="start" x="53.34" y="-199.47" font-family="JetBrains Mono, ui-monospace, monospace" font-size="11.00" fill="#c9d3df"> &#160;temp t0.3</text>
<text text-anchor="start" x="53.34" y="-185.97" font-family="JetBrains Mono, ui-monospace, monospace" font-size="11.00" fill="#c9d3df"> &#160;phi(t0.2, t0.4)</text>
<text text-anchor="start" x="53.34" y="-172.47" font-family="JetBrains Mono, ui-monospace, monospace" font-size="11.00" fill="#c9d3df">sxp</text>
<text text-anchor="start" x="53.34" y="-158.97" font-family="JetBrains Mono, ui-monospace, monospace" font-size="11.00" fill="#c9d3df"> &#160;call</text>
<text text-anchor="start" x="53.34" y="-145.47" font-family="JetBrains Mono, ui-monospace, monospace" font-size="11.00" fill="#c9d3df"> &#160;&#160;&#160;name print_int</text>
<text text-anchor="start" x="53.34" y="-131.97" font-family="JetBrains Mono, ui-monospace, monospace" font-size="11.00" fill="#c9d3df"> &#160;&#160;&#160;temp t0.3</text>
<text text-anchor="start" x="53.34" y="-118.47" font-family="JetBrains Mono, ui-monospace, monospace" font-size="11.00" fill="#c9d3df"> &#160;call end</text>
<text text-anchor="start" x="53.34" y="-104.97" font-family="JetBrains Mono, ui-monospace, monospace" font-size="11.00" fill="#c9d3df">sxp</text>
<text text-anchor="start" x="53.34" y="-91.47" font-family="JetBrains Mono, ui-monospace, monospace" font-size="11.00" fill="#c9d3df"> &#160;call</text>
<text text-anchor="start" x="53.34" y="-77.97" font-family="JetBrains Mono, ui-monospace, monospace" font-size="11.00" fill="#c9d3df"> &#160;&#160;&#160;name print</text>
<text text-anchor="start" x="53.34" y="-64.47" font-family="JetBrains Mono, ui-monospace, monospace" font-size="11.00" fill="#c9d3df"> &#160;&#160;&#160;name l0</text>
<text text-anchor="start" x="53.34" y="-50.97" font-family="JetBrains Mono, ui-monospace, monospace" font-size="11.00" fill="#c9d3df"> &#160;call end</text>
<text text-anchor="start" x="53.34" y="-37.47" font-family="JetBrains Mono, ui-monospace, monospace" font-size="11.00" fill="#c9d3df">jump</text>
<text text-anchor="start" x="53.34" y="-23.97" font-family="JetBrains Mono, ui-monospace, monospace" font-size="11.00" fill="#c9d3df"> &#160;name l4</text>
</g>
<!-- 1&#45;&gt;2 -->
<g id="edge1" class="edge">
<title>1&#45;&gt;2</title>
<path fill="none" stroke="#ffa657" stroke-width="1.2" d="M69.72,-276.5C71.85,-269.14 74.07,-261.49 76.33,-253.7"/>
<polygon fill="#ffa657" stroke="#ffa657" stroke-width="1.2" points="78.72,-254.88 78.29,-246.94 73.68,-253.42 78.72,-254.88"/>
</g>
<!-- 3&#45;&gt;2 -->
<g id="edge3" class="edge">
<title>3&#45;&gt;2</title>
<path fill="none" stroke="#ffa657" stroke-width="1.2" d="M159.14,-276.5C156.98,-269.14 154.72,-261.49 152.43,-253.7"/>
<polygon fill="#ffa657" stroke="#ffa657" stroke-width="1.2" points="155.08,-253.4 150.44,-246.94 150.04,-254.88 155.08,-253.4"/>
</g>
</g>
</svg>
