<?xml version="1.0" encoding="UTF-8" standalone="no"?>
<!DOCTYPE svg PUBLIC "-//W3C//DTD SVG 1.1//EN"
 "http://www.w3.org/Graphics/SVG/1.1/DTD/svg11.dtd">
<!-- Generated by graphviz version 12.2.1 (0)
 -->
<!-- Title: copy_before.main._main.basic&#45;block&#45;flow.gv Pages: 1 -->
<svg width="261pt" height="807pt"
 viewBox="0.00 0.00 260.67 806.52" xmlns="http://www.w3.org/2000/svg" xmlns:xlink="http://www.w3.org/1999/xlink">
<g id="graph0" class="graph" transform="scale(1 1) rotate(0) translate(4 802.52)">
<title>copy_before.main._main.basic&#45;block&#45;flow.gv</title>
<!-- 0 -->
<g id="node1" class="node">
<title>0</title>
<path fill="#11161f" stroke="#2b3645" stroke-width="1.3" d="M163.92,-798.52C163.92,-798.52 87.75,-798.52 87.75,-798.52 81.75,-798.52 75.75,-792.52 75.75,-786.52 75.75,-786.52 75.75,-457.68 75.75,-457.68 75.75,-451.68 81.75,-445.68 87.75,-445.68 87.75,-445.68 163.92,-445.68 163.92,-445.68 169.92,-445.68 175.92,-451.68 175.92,-457.68 175.92,-457.68 175.92,-786.52 175.92,-786.52 175.92,-792.52 169.92,-798.52 163.92,-798.52"/>
<text text-anchor="start" x="88.71" y="-780.15" font-family="JetBrains Mono, ui-monospace, monospace" font-size="11.00" fill="#c9d3df">label l7</text>
<text text-anchor="start" x="88.71" y="-766.65" font-family="JetBrains Mono, ui-monospace, monospace" font-size="11.00" fill="#c9d3df">move</text>
<text text-anchor="start" x="88.71" y="-753.15" font-family="JetBrains Mono, ui-monospace, monospace" font-size="11.00" fill="#c9d3df"> &#160;temp t2.0</text>
<text text-anchor="start" x="88.71" y="-739.65" font-family="JetBrains Mono, ui-monospace, monospace" font-size="11.00" fill="#c9d3df"> &#160;const 0</text>
<text text-anchor="start" x="88.71" y="-726.15" font-family="JetBrains Mono, ui-monospace, monospace" font-size="11.00" fill="#c9d3df">move</text>
<text text-anchor="start" x="88.71" y="-712.65" font-family="JetBrains Mono, ui-monospace, monospace" font-size="11.00" fill="#c9d3df"> &#160;temp t1.0</text>
<text text-anchor="start" x="88.71" y="-699.15" font-family="JetBrains Mono, ui-monospace, monospace" font-size="11.00" fill="#c9d3df"> &#160;const 0</text>
<text text-anchor="start" x="88.71" y="-685.65" font-family="JetBrains Mono, ui-monospace, monospace" font-size="11.00" fill="#c9d3df">move</text>
<text text-anchor="start" x="88.71" y="-672.15" font-family="JetBrains Mono, ui-monospace, monospace" font-size="11.00" fill="#c9d3df"> &#160;temp t0.0</text>
<text text-anchor="start" x="88.71" y="-658.65" font-family="JetBrains Mono, ui-monospace, monospace" font-size="11.00" fill="#c9d3df"> &#160;const 0</text>
<text text-anchor="start" x="88.71" y="-645.15" font-family="JetBrains Mono, ui-monospace, monospace" font-size="11.00" fill="#c9d3df">move</text>
<text text-anchor="start" x="88.71" y="-631.65" font-family="JetBrains Mono, ui-monospace, monospace" font-size="11.00" fill="#c9d3df"> &#160;temp t0.1</text>
<text text-anchor="start" x="88.71" y="-618.15" font-family="JetBrains Mono, ui-monospace, monospace" font-size="11.00" fill="#c9d3df"> &#160;const 81</text>
<text text-anchor="start" x="88.71" y="-604.65" font-family="JetBrains Mono, ui-monospace, monospace" font-size="11.00" fill="#c9d3df">move</text>
<text text-anchor="start" x="88.71" y="-591.15" font-family="JetBrains Mono, ui-monospace, monospace" font-size="11.00" fill="#c9d3df"> &#160;temp t1.1</text>
<text text-anchor="start" x="88.71" y="-577.65" font-family="JetBrains Mono, ui-monospace, monospace" font-size="11.00" fill="#c9d3df"> &#160;temp t0.1</text>
<text text-anchor="start" x="88.71" y="-564.15" font-family="JetBrains Mono, ui-monospace, monospace" font-size="11.00" fill="#c9d3df">move</text>
<text text-anchor="start" x="88.71" y="-550.65" font-family="JetBrains Mono, ui-monospace, monospace" font-size="11.00" fill="#c9d3df"> &#160;temp t2.1</text>
<text text-anchor="start" x="88.71" y="-537.15" font-family="JetBrains Mono, ui-monospace, monospace" font-size="11.00" fill="#c9d3df"> &#160;const 0</text>
<text text-anchor="start" x="88.71" y="-523.65" font-family="JetBrains Mono, ui-monospace, monospace" font-size="11.00" fill="#c9d3df">cjump gt</text>
<text text-anchor="start" x="88.71" y="-510.15" font-family="JetBrains Mono, ui-monospace, monospace" font-size="11.00" fill="#c9d3df"> &#160;temp t1.1</text>
<text text-anchor="start" x="88.71" y="-496.65" font-family="JetBrains Mono, ui-monospace, monospace" font-size="11.00" fill="#c9d3df"> &#160;const 0</text>
<text text-anchor="start" x="88.71" y="-483.15" font-family="JetBrains Mono, ui-monospace, monospace" font-size="11.00" fill="#c9d3df"> &#160;name l1</text>
<text text-anchor="start" x="88.71" y="-469.65" font-family="JetBrains Mono, ui-monospace, monospace" font-size="11.00" fill="#c9d3df"> &#160;name l2</text>
</g>
<!-- 1 -->
<g id="node2" class="node">
<title>1</title>
<path fill="#11161f" stroke="#2b3645" stroke-width="1.3" d="M101.67,-413.68C101.67,-413.68 12,-413.68 12,-413.68 6,-413.68 0,-407.68 0,-401.68 0,-401.68 0,-288.84 0,-288.84 0,-282.84 6,-276.84 12,-276.84 12,-276.84 101.67,-276.84 101.67,-276.84 107.67,-276.84 113.67,-282.84 113.67,-288.84 113.67,-288.84 113.67,-401.68 113.67,-401.68 113.67,-407.68 107.67,-413.68 101.67,-413.68"/>
<text text-anchor="start" x="12.96" y="-395.31" font-family="JetBrains Mono, ui-monospace, monospace" font-size="11.00" fill="#c9d3df">label l1</text>
<text text-anchor="start" x="12.96" y="-381.81" font-family="JetBrains Mono, ui-monospace, monospace" font-size="11.00" fill="#c9d3df">move</text>
<text text-anchor="start" x="12.96" y="-368.31" font-family="JetBrains Mono, ui-monospace, monospace" font-size="11.00" fill="#c9d3df"> &#160;temp t2.2</text>
<text text-anchor="start" x="12.96" y="-354.81" font-family="JetBrains Mono, ui-monospace, monospace" font-size="11.00" fill="#c9d3df"> &#160;binop add</text>
<text text-anchor="start" x="12.96" y="-341.31" font-family="JetBrains Mono, ui-monospace, monospace" font-size="11.00" fill="#c9d3df"> &#160;&#160;&#160;temp t1.1</text>
<text text-anchor="start" x="12.96" y="-327.81" font-family="JetBrains Mono, ui-monospace, monospace" font-size="11.00" fill="#c9d3df"> &#160;&#160;&#160;const 1</text>
<text text-anchor="start" x="12.96" y="-314.31" font-family="JetBrains Mono, ui-monospace, monospace" font-size="11.00" fill="#c9d3df">jump</text>
<text text-anchor="start" x="12.96" y="-300.81" font-family="JetBrains Mono, ui-monospace, monospace" font-size="11.00" fill="#c9d3df"> &#160;name l3</text>
</g>
<!-- 0&#45;&gt;1 -->
<g id="edge2" class="edge">
<title>0&#45;&gt;1</title>
<path fill="none" stroke="#ffa657" stroke-width="1.2" d="M81.75,-445.48C79.81,-437.79 77.93,-430.27 76.11,-423.03"/>
<polygon fill="#ffa657" stroke="#ffa657" stroke-width="1.2" points="78.66,-422.42 74.29,-415.78 73.57,-423.7 78.66,-422.42"/>
</g>
<!-- 3 -->
<g id="node4" class="node">
<title>3</title>
<path fill="#11161f" stroke="#2b3645" stroke-width="1.3" d="M240.67,-413.68C240.67,-413.68 151,-413.68 151,-413.68 145,-413.68 139,-407.68 139,-401.68 139,-401.68 139,-288.84 139,-288.84 139,-282.84 145,-276.84 151,-276.84 151,-276.84 240.67,-276.84 240.67,-276.84 246.67,-276.84 252.67,-282.84 252.67,-288.84 252.67,-288.84 252.67,-401.68 252.67,-401.68 252.67,-407.68 246.67,-413.68 240.67,-413.68"/>
<text text-anchor="start" x="151.96" y="-395.31" font-family="JetBrains Mono, ui-monospace, monospace" font-size="11.00" fill="#c9d3df">label l2</text>
<text text-anchor="start" x="151.96" y="-381.81" font-family="JetBrains Mono, ui-monospace, monospace" font-size="11.00" fill="#c9d3df">move</text>
<text text-anchor="start" x="151.96" y="-368.31" font-family="JetBrains Mono, ui-monospace, monospace" font-size="11.00" fill="#c9d3df"> &#160;temp t2.4</text>
<text text-anchor="start" x="151.96" y="-354.81" font-family="JetBrains Mono, ui-monospace, monospace" font-size="11.00" fill="#c9d3df"> &#160;binop sub</text>
<text text-anchor="start" x="151.96" y="-341.31" font-family="JetBrains Mono, ui-monospace, monospace" font-size="11.00" fill="#c9d3df"> &#160;&#160;&#160;temp t1.1</text>
<text text-anchor="start" x="151.96" y="-327.81" font-family="JetBrains Mono, ui-monospace, monospace" font-size="11.00" fill="#c9d3df"> &#160;&#160;&#160;const 1</text>
<text text-anchor="start" x="151.96" y="-314.31" font-family="JetBrains Mono, ui-monospace, monospace" font-size="11.00" fill="#c9d3df">jump</text>
<text text-anchor="start" x="151.96" y="-300.81" font-family="JetBrains Mono, ui-monospace, monospace" font-size="11.00" fill="#c9d3df"> &#160;name l3</text>
</g>
<!-- 0&#45;&gt;3 -->
<g id="edge4" class="edge">
<title>0&#45;&gt;3</title>
<path fill="none" stroke="#ffa657" stroke-width="1.2" d="M170.56,-445.48C172.52,-437.79 174.44,-430.27 176.28,-423.03"/>
<polygon fill="#ffa657" stroke="#ffa657" stroke-width="1.2" points="178.82,-423.7 178.13,-415.78 173.73,-422.4 178.82,-423.7"/>
</g>
<!-- 2 -->
<g id="node3" class="node">
<title>2</title>
<path fill="#11161f" stroke="#2b3645" stroke-width="1.3" d="M187.55,-244.84C187.55,-244.84 64.12,-244.84 64.12,-244.84 58.12,-244.84 52.13,-238.84 52.13,-232.84 52.13,-232.84 52.13,-12 52.13,-12 52.13,-6 58.13,0 64.13,0 64.13,0 187.55,0 187.55,0 193.55,0 199.55,-6 199.55,-12 199.55,-12 199.55,-232.84 199.55,-232.84 199.55,-238.84 193.55,-244.84 187.55,-244.84"/>
<text text-anchor="start" x="65.09" y="-226.47" font-family="JetBrains Mono, ui-monospace, monospace" font-size="11.00" fill="#c9d3df">label l3</text>
<text text-anchor="start" x="65.09" y="-212.97" font-family="JetBrains Mono, ui-monospace, monospace" font-size="11.00" fill="#c9d3df">move</text>
<text text-anchor="start" x="65.09" y="-199.47" font-family="JetBrains Mono, ui-monospace, monospace" font-size="11.00" fill="#c9d3df"> &#160;temp t2.3</text>
<text text-anchor="start" x="65.09" y="-185.97" font-family="JetBrains Mono, ui-monospace, monospace" font-size="11.00" fill="#c9d3df"> &#160;phi(t2.2, t2.4)</text>
<text text-anchor="start" x="65.09" y="-172.47" font-family="JetBrains Mono, ui-monospace, monospace" font-size="11.00" fill="#c9d3df">sxp</text>
<text text-anchor="start" x="65.09" y="-158.97" font-family="JetBrains Mono, ui-monospace, monospace" font-size="11.00" fill="#c9d3df"> &#160;call</text>
<text text-anchor="start" x="65.09" y="-145.47" font-family="JetBrains Mono, ui-monospace, monospace" font-size="11.00" fill="#c9d3df"> &#160;&#160;&#160;name print_int</text>
<text text-anchor="start" x="65.09" y="-131.97" font-family="JetBrains Mono, ui-monospace, monospace" font-size="11.00" fill="#c9d3df"> &#160;&#160;&#160;temp t2.3</text>
<text text-anchor="start" x="65.09" y="-118.47" font-family="JetBrains Mono, ui-monospace, monospace" font-size="11.00" fill="#c9d3df"> &#160;call end</text>
<text text-anchor="start" x="65.09" y="-104.97" font-family="JetBrains Mono, ui-monospace, monospace" font-size="11.00" fill="#c9d3df">sxp</text>
<text text-anchor="start" x="65.09" y="-91.47" font-family="JetBrains Mono, ui-monospace, monospace" font-size="11.00" fill="#c9d3df"> &#160;call</text>
<text text-anchor="start" x="65.09" y="-77.97" font-family="JetBrains Mono, ui-monospace, monospace" font-size="11.00" fill="#c9d3df"> &#160;&#160;&#160;name print</text>
<text text-anchor="start" x="65.09" y="-64.47" font-family="JetBrains Mono, ui-monospace, monospace" font-size="11.00" fill="#c9d3df"> &#160;&#160;&#160;name l0</text>
<text text-anchor="start" x="65.09" y="-50.97" font-family="JetBrains Mono, ui-monospace, monospace" font-size="11.00" fill="#c9d3df"> &#160;call end</text>
<text text-anchor="start" x="65.09" y="-37.47" font-family="JetBrains Mono, ui-monospace, monospace" font-size="11.00" fill="#c9d3df">jump</text>
<text text-anchor="start" x="65.09" y="-23.97" font-family="JetBrains Mono, ui-monospace, monospace" font-size="11.00" fill="#c9d3df"> &#160;name l4</text>
</g>
<!-- 1&#45;&gt;2 -->
<g id="edge1" class="edge">
<title>1&#45;&gt;2</title>
<path fill="none" stroke="#ffa657" stroke-width="1.2" d="M78.01,-276.5C80.3,-269.14 82.7,-261.49 85.13,-253.7"/>
<polygon fill="#ffa657" stroke="#ffa657" stroke-width="1.2" points="87.51,-254.87 87.24,-246.93 82.5,-253.31 87.51,-254.87"/>
</g>
<!-- 3&#45;&gt;2 -->
<g id="edge3" class="edge">
<title>3&#45;&gt;2</title>
<path fill="none" stroke="#ffa657" stroke-width="1.2" d="M174.36,-276.5C172.03,-269.14 169.6,-261.49 167.13,-253.7"/>
<polygon fill="#ffa657" stroke="#ffa657" stroke-width="1.2" points="169.75,-253.29 164.98,-246.93 164.75,-254.87 169.75,-253.29"/>
</g>
</g>
</svg>
